<svg width="400" height="400" viewBox="0 0 400 400" fill="none" xmlns="http://www.w3.org/2000/svg">
<rect width="400" height="192" transform="translate(0 208)" fill="#0803FF"/>
<path d="M20.1332 248V230.545H22.2468V238.318H31.5536V230.545H33.6673V248H31.5536V240.193H22.2468V248H20.1332ZM37.8988 248V230.545H40.0124V238.318H49.3192V230.545H51.4329V248H49.3192V240.193H40.0124V248H37.8988ZM62.4144 248V230.545H68.5167C69.7326 230.545 70.7354 230.756 71.5252 231.176C72.315 231.591 72.9031 232.151 73.2894 232.855C73.6758 233.554 73.869 234.33 73.869 235.182C73.869 235.932 73.7354 236.551 73.4684 237.04C73.207 237.528 72.8604 237.915 72.4286 238.199C72.0025 238.483 71.5394 238.693 71.0394 238.83V239C71.5735 239.034 72.1104 239.222 72.6502 239.562C73.19 239.903 73.6417 240.392 74.0053 241.028C74.369 241.665 74.5508 242.443 74.5508 243.364C74.5508 244.239 74.3519 245.026 73.9542 245.724C73.5565 246.423 72.9286 246.977 72.0707 247.386C71.2127 247.795 70.0962 248 68.7212 248H62.4144ZM64.5281 246.125H68.7212C70.1019 246.125 71.082 245.858 71.6616 245.324C72.2468 244.784 72.5394 244.131 72.5394 243.364C72.5394 242.773 72.3888 242.227 72.0877 241.727C71.7866 241.222 71.3576 240.818 70.8008 240.517C70.244 240.21 69.5849 240.057 68.8235 240.057H64.5281V246.125ZM64.5281 238.216H68.4485C69.0849 238.216 69.6587 238.091 70.1701 237.841C70.6871 237.591 71.0962 237.239 71.3974 236.784C71.7042 236.33 71.8576 235.795 71.8576 235.182C71.8576 234.415 71.5906 233.764 71.0565 233.23C70.5224 232.69 69.6758 232.42 68.5167 232.42H64.5281V238.216ZM92.0692 236H89.9556C89.8306 235.392 89.6119 234.858 89.2994 234.398C88.9925 233.938 88.6175 233.551 88.1744 233.239C87.7369 232.92 87.2511 232.682 86.717 232.523C86.1829 232.364 85.6261 232.284 85.0465 232.284C83.9897 232.284 83.0323 232.551 82.1744 233.085C81.3221 233.619 80.6431 234.406 80.1374 235.446C79.6374 236.486 79.3874 237.761 79.3874 239.273C79.3874 240.784 79.6374 242.06 80.1374 243.099C80.6431 244.139 81.3221 244.926 82.1744 245.46C83.0323 245.994 83.9897 246.261 85.0465 246.261C85.6261 246.261 86.1829 246.182 86.717 246.023C87.2511 245.864 87.7369 245.628 88.1744 245.315C88.6175 244.997 88.9925 244.608 89.2994 244.148C89.6119 243.682 89.8306 243.148 89.9556 242.545H92.0692C91.9102 243.437 91.6204 244.236 91.1999 244.94C90.7795 245.645 90.2567 246.244 89.6317 246.739C89.0067 247.227 88.305 247.599 87.5266 247.855C86.7539 248.111 85.9272 248.239 85.0465 248.239C83.5579 248.239 82.234 247.875 81.0749 247.148C79.9158 246.42 79.0039 245.386 78.3391 244.045C77.6744 242.705 77.342 241.114 77.342 239.273C77.342 237.432 77.6744 235.841 78.3391 234.5C79.0039 233.159 79.9158 232.125 81.0749 231.398C82.234 230.67 83.5579 230.307 85.0465 230.307C85.9272 230.307 86.7539 230.435 87.5266 230.69C88.305 230.946 89.0067 231.321 89.6317 231.815C90.2567 232.304 90.7795 232.901 91.1999 233.605C91.6204 234.304 91.9102 235.102 92.0692 236ZM95.4847 248V230.545H101.587C102.803 230.545 103.806 230.756 104.596 231.176C105.385 231.591 105.973 232.151 106.36 232.855C106.746 233.554 106.939 234.33 106.939 235.182C106.939 235.932 106.806 236.551 106.539 237.04C106.277 237.528 105.931 237.915 105.499 238.199C105.073 238.483 104.61 238.693 104.11 238.83V239C104.644 239.034 105.181 239.222 105.721 239.562C106.26 239.903 106.712 240.392 107.076 241.028C107.439 241.665 107.621 242.443 107.621 243.364C107.621 244.239 107.422 245.026 107.025 245.724C106.627 246.423 105.999 246.977 105.141 247.386C104.283 247.795 103.167 248 101.792 248H95.4847ZM97.5984 246.125H101.792C103.172 246.125 104.152 245.858 104.732 245.324C105.317 244.784 105.61 244.131 105.61 243.364C105.61 242.773 105.459 242.227 105.158 241.727C104.857 241.222 104.428 240.818 103.871 240.517C103.314 240.21 102.655 240.057 101.894 240.057H97.5984V246.125ZM97.5984 238.216H101.519C102.155 238.216 102.729 238.091 103.24 237.841C103.757 237.591 104.167 237.239 104.468 236.784C104.775 236.33 104.928 235.795 104.928 235.182C104.928 234.415 104.661 233.764 104.127 233.23C103.593 232.69 102.746 232.42 101.587 232.42H97.5984V238.216Z" fill="white"/>
<path d="M237.284 247L232.511 229.545H234.659L238.307 243.761H238.477L242.193 229.545H244.58L248.295 243.761H248.466L252.114 229.545H254.261L249.489 247H247.307L243.455 233.091H243.318L239.466 247H237.284ZM260.065 247L255.293 229.545H257.44L261.088 243.761H261.259L264.974 229.545H267.361L271.077 243.761H271.247L274.895 229.545H277.043L272.27 247H270.088L266.236 233.091H266.099L262.247 247H260.065ZM282.847 247L278.074 229.545H280.222L283.869 243.761H284.04L287.756 229.545H290.142L293.858 243.761H294.028L297.676 229.545H299.824L295.051 247H292.869L289.017 233.091H288.881L285.028 247H282.847ZM235.307 273.136C234.886 273.136 234.526 272.986 234.224 272.685C233.923 272.384 233.773 272.023 233.773 271.602C233.773 271.182 233.923 270.821 234.224 270.52C234.526 270.219 234.886 270.068 235.307 270.068C235.727 270.068 236.088 270.219 236.389 270.52C236.69 270.821 236.841 271.182 236.841 271.602C236.841 271.881 236.77 272.136 236.628 272.369C236.491 272.602 236.307 272.79 236.074 272.932C235.847 273.068 235.591 273.136 235.307 273.136ZM240.723 273V255.545H251.189V257.42H242.837V263.318H250.405V265.193H242.837V273H240.723ZM254.809 273V255.545H256.923V271.125H265.036V273H254.809ZM268.309 273V255.545H278.843V257.42H270.423V263.318H278.298V265.193H270.423V271.125H278.979V273H268.309ZM283.675 255.545L288.175 262.807H288.312L292.812 255.545H295.3L289.812 264.273L295.3 273H292.812L288.312 265.875H288.175L283.675 273H281.187L286.812 264.273L281.187 255.545H283.675ZM300.165 255.545V273H298.051V255.545H300.165ZM304.403 273V255.545H310.505C311.721 255.545 312.724 255.756 313.513 256.176C314.303 256.591 314.891 257.151 315.278 257.855C315.664 258.554 315.857 259.33 315.857 260.182C315.857 260.932 315.724 261.551 315.457 262.04C315.195 262.528 314.849 262.915 314.417 263.199C313.991 263.483 313.528 263.693 313.028 263.83V264C313.562 264.034 314.099 264.222 314.638 264.562C315.178 264.903 315.63 265.392 315.994 266.028C316.357 266.665 316.539 267.443 316.539 268.364C316.539 269.239 316.34 270.026 315.942 270.724C315.545 271.423 314.917 271.977 314.059 272.386C313.201 272.795 312.085 273 310.71 273H304.403ZM306.516 271.125H310.71C312.09 271.125 313.07 270.858 313.65 270.324C314.235 269.784 314.528 269.131 314.528 268.364C314.528 267.773 314.377 267.227 314.076 266.727C313.775 266.222 313.346 265.818 312.789 265.517C312.232 265.21 311.573 265.057 310.812 265.057H306.516V271.125ZM306.516 263.216H310.437C311.073 263.216 311.647 263.091 312.158 262.841C312.675 262.591 313.085 262.239 313.386 261.784C313.692 261.33 313.846 260.795 313.846 260.182C313.846 259.415 313.579 258.764 313.045 258.23C312.511 257.69 311.664 257.42 310.505 257.42H306.516V263.216ZM320.012 273V255.545H322.126V271.125H330.239V273H320.012ZM333.512 273V255.545H344.046V257.42H335.626V263.318H343.501V265.193H335.626V271.125H344.183V273H333.512ZM234.83 281.545L240.011 296.239H240.216L245.398 281.545H247.614L241.205 299H239.023L232.614 281.545H234.83ZM252.446 281.545V299H250.332V281.545H252.446ZM266.229 285.909C266.127 285.045 265.712 284.375 264.985 283.898C264.258 283.42 263.366 283.182 262.309 283.182C261.536 283.182 260.86 283.307 260.281 283.557C259.707 283.807 259.258 284.151 258.934 284.588C258.616 285.026 258.457 285.523 258.457 286.08C258.457 286.545 258.567 286.946 258.789 287.281C259.016 287.611 259.306 287.886 259.658 288.108C260.011 288.324 260.38 288.503 260.766 288.645C261.153 288.781 261.508 288.892 261.832 288.977L263.604 289.455C264.059 289.574 264.565 289.739 265.121 289.949C265.684 290.159 266.221 290.446 266.732 290.81C267.249 291.168 267.675 291.628 268.011 292.19C268.346 292.753 268.513 293.443 268.513 294.261C268.513 295.205 268.266 296.057 267.772 296.818C267.283 297.58 266.567 298.185 265.624 298.634C264.687 299.082 263.548 299.307 262.207 299.307C260.957 299.307 259.874 299.105 258.96 298.702C258.05 298.298 257.335 297.736 256.812 297.014C256.295 296.293 256.002 295.455 255.934 294.5H258.116C258.173 295.159 258.394 295.705 258.781 296.136C259.173 296.562 259.667 296.881 260.263 297.091C260.866 297.295 261.513 297.398 262.207 297.398C263.013 297.398 263.738 297.267 264.38 297.006C265.022 296.739 265.531 296.369 265.906 295.898C266.281 295.42 266.468 294.864 266.468 294.227C266.468 293.648 266.306 293.176 265.982 292.812C265.658 292.449 265.232 292.153 264.704 291.926C264.175 291.699 263.604 291.5 262.991 291.33L260.843 290.716C259.479 290.324 258.4 289.764 257.604 289.037C256.809 288.31 256.411 287.358 256.411 286.182C256.411 285.205 256.675 284.352 257.204 283.625C257.738 282.892 258.454 282.324 259.352 281.92C260.255 281.511 261.263 281.307 262.377 281.307C263.502 281.307 264.502 281.509 265.377 281.912C266.252 282.31 266.945 282.855 267.457 283.548C267.974 284.241 268.246 285.028 268.275 285.909H266.229ZM283.443 281.545H285.557V293.102C285.557 294.295 285.276 295.361 284.713 296.298C284.156 297.23 283.369 297.966 282.352 298.506C281.335 299.04 280.142 299.307 278.773 299.307C277.403 299.307 276.21 299.04 275.193 298.506C274.176 297.966 273.386 297.23 272.824 296.298C272.267 295.361 271.989 294.295 271.989 293.102V281.545H274.102V292.932C274.102 293.784 274.29 294.543 274.665 295.207C275.04 295.866 275.574 296.386 276.267 296.767C276.966 297.142 277.801 297.33 278.773 297.33C279.744 297.33 280.58 297.142 281.278 296.767C281.977 296.386 282.511 295.866 282.881 295.207C283.256 294.543 283.443 293.784 283.443 292.932V281.545ZM290.494 299H288.278L294.687 281.545H296.869L303.278 299H301.062L295.846 284.307H295.71L290.494 299ZM291.312 292.182H300.244V294.057H291.312V292.182ZM305.996 299V281.545H308.11V297.125H316.224V299H305.996ZM243.659 311.909C243.557 311.045 243.142 310.375 242.415 309.898C241.688 309.42 240.795 309.182 239.739 309.182C238.966 309.182 238.29 309.307 237.71 309.557C237.136 309.807 236.688 310.151 236.364 310.588C236.045 311.026 235.886 311.523 235.886 312.08C235.886 312.545 235.997 312.946 236.219 313.281C236.446 313.611 236.736 313.886 237.088 314.108C237.44 314.324 237.81 314.503 238.196 314.645C238.582 314.781 238.938 314.892 239.261 314.977L241.034 315.455C241.489 315.574 241.994 315.739 242.551 315.949C243.114 316.159 243.651 316.446 244.162 316.81C244.679 317.168 245.105 317.628 245.44 318.19C245.776 318.753 245.943 319.443 245.943 320.261C245.943 321.205 245.696 322.057 245.202 322.818C244.713 323.58 243.997 324.185 243.054 324.634C242.116 325.082 240.977 325.307 239.636 325.307C238.386 325.307 237.304 325.105 236.389 324.702C235.48 324.298 234.764 323.736 234.241 323.014C233.724 322.293 233.432 321.455 233.364 320.5H235.545C235.602 321.159 235.824 321.705 236.21 322.136C236.602 322.562 237.097 322.881 237.693 323.091C238.295 323.295 238.943 323.398 239.636 323.398C240.443 323.398 241.168 323.267 241.81 323.006C242.452 322.739 242.96 322.369 243.335 321.898C243.71 321.42 243.898 320.864 243.898 320.227C243.898 319.648 243.736 319.176 243.412 318.812C243.088 318.449 242.662 318.153 242.134 317.926C241.605 317.699 241.034 317.5 240.42 317.33L238.273 316.716C236.909 316.324 235.83 315.764 235.034 315.037C234.239 314.31 233.841 313.358 233.841 312.182C233.841 311.205 234.105 310.352 234.634 309.625C235.168 308.892 235.884 308.324 236.781 307.92C237.685 307.511 238.693 307.307 239.807 307.307C240.932 307.307 241.932 307.509 242.807 307.912C243.682 308.31 244.375 308.855 244.886 309.548C245.403 310.241 245.676 311.028 245.705 311.909H243.659ZM247.918 307.545H250.339L255.18 315.693H255.384L260.225 307.545H262.646L256.339 317.807V325H254.225V317.807L247.918 307.545ZM274.925 311.909C274.822 311.045 274.408 310.375 273.68 309.898C272.953 309.42 272.061 309.182 271.004 309.182C270.232 309.182 269.555 309.307 268.976 309.557C268.402 309.807 267.953 310.151 267.629 310.588C267.311 311.026 267.152 311.523 267.152 312.08C267.152 312.545 267.263 312.946 267.484 313.281C267.712 313.611 268.001 313.886 268.354 314.108C268.706 314.324 269.075 314.503 269.462 314.645C269.848 314.781 270.203 314.892 270.527 314.977L272.3 315.455C272.754 315.574 273.26 315.739 273.817 315.949C274.379 316.159 274.916 316.446 275.428 316.81C275.945 317.168 276.371 317.628 276.706 318.19C277.041 318.753 277.209 319.443 277.209 320.261C277.209 321.205 276.962 322.057 276.467 322.818C275.979 323.58 275.263 324.185 274.32 324.634C273.382 325.082 272.243 325.307 270.902 325.307C269.652 325.307 268.57 325.105 267.655 324.702C266.746 324.298 266.03 323.736 265.507 323.014C264.99 322.293 264.697 321.455 264.629 320.5H266.811C266.868 321.159 267.089 321.705 267.476 322.136C267.868 322.562 268.362 322.881 268.959 323.091C269.561 323.295 270.209 323.398 270.902 323.398C271.709 323.398 272.433 323.267 273.075 323.006C273.717 322.739 274.226 322.369 274.601 321.898C274.976 321.42 275.163 320.864 275.163 320.227C275.163 319.648 275.001 319.176 274.678 318.812C274.354 318.449 273.928 318.153 273.399 317.926C272.871 317.699 272.3 317.5 271.686 317.33L269.538 316.716C268.175 316.324 267.095 315.764 266.3 315.037C265.504 314.31 265.107 313.358 265.107 312.182C265.107 311.205 265.371 310.352 265.899 309.625C266.433 308.892 267.149 308.324 268.047 307.92C268.95 307.511 269.959 307.307 271.072 307.307C272.197 307.307 273.197 307.509 274.072 307.912C274.947 308.31 275.641 308.855 276.152 309.548C276.669 310.241 276.942 311.028 276.97 311.909H274.925ZM279.729 309.42V307.545H292.82V309.42H287.332V325H285.218V309.42H279.729ZM296.082 325V307.545H306.616V309.42H298.196V315.318H306.071V317.193H298.196V323.125H306.753V325H296.082ZM310.426 307.545H312.949L318.881 322.034H319.085L325.017 307.545H327.54V325H325.562V311.739H325.392L319.938 325H318.028L312.574 311.739H312.403V325H310.426V307.545ZM341.323 311.909C341.221 311.045 340.806 310.375 340.079 309.898C339.352 309.42 338.46 309.182 337.403 309.182C336.63 309.182 335.954 309.307 335.374 309.557C334.8 309.807 334.352 310.151 334.028 310.588C333.71 311.026 333.55 311.523 333.55 312.08C333.55 312.545 333.661 312.946 333.883 313.281C334.11 313.611 334.4 313.886 334.752 314.108C335.104 314.324 335.474 314.503 335.86 314.645C336.246 314.781 336.602 314.892 336.925 314.977L338.698 315.455C339.153 315.574 339.658 315.739 340.215 315.949C340.778 316.159 341.315 316.446 341.826 316.81C342.343 317.168 342.769 317.628 343.104 318.19C343.44 318.753 343.607 319.443 343.607 320.261C343.607 321.205 343.36 322.057 342.866 322.818C342.377 323.58 341.661 324.185 340.718 324.634C339.781 325.082 338.641 325.307 337.3 325.307C336.05 325.307 334.968 325.105 334.053 324.702C333.144 324.298 332.428 323.736 331.906 323.014C331.388 322.293 331.096 321.455 331.028 320.5H333.21C333.266 321.159 333.488 321.705 333.874 322.136C334.266 322.562 334.761 322.881 335.357 323.091C335.96 323.295 336.607 323.398 337.3 323.398C338.107 323.398 338.832 323.267 339.474 323.006C340.116 322.739 340.624 322.369 340.999 321.898C341.374 321.42 341.562 320.864 341.562 320.227C341.562 319.648 341.4 319.176 341.076 318.812C340.752 318.449 340.326 318.153 339.798 317.926C339.269 317.699 338.698 317.5 338.085 317.33L335.937 316.716C334.573 316.324 333.494 315.764 332.698 315.037C331.903 314.31 331.505 313.358 331.505 312.182C331.505 311.205 331.769 310.352 332.298 309.625C332.832 308.892 333.548 308.324 334.445 307.92C335.349 307.511 336.357 307.307 337.471 307.307C338.596 307.307 339.596 307.509 340.471 307.912C341.346 308.31 342.039 308.855 342.55 309.548C343.067 310.241 343.34 311.028 343.369 311.909H341.323ZM235.307 351.136C234.886 351.136 234.526 350.986 234.224 350.685C233.923 350.384 233.773 350.023 233.773 349.602C233.773 349.182 233.923 348.821 234.224 348.52C234.526 348.219 234.886 348.068 235.307 348.068C235.727 348.068 236.088 348.219 236.389 348.52C236.69 348.821 236.841 349.182 236.841 349.602C236.841 349.881 236.77 350.136 236.628 350.369C236.491 350.602 236.307 350.79 236.074 350.932C235.847 351.068 235.591 351.136 235.307 351.136ZM242.837 333.545V351H240.723V333.545H242.837ZM260.915 333.545V351H258.87L249.359 337.295H249.188V351H247.075V333.545H249.12L258.665 347.284H258.836V333.545H260.915ZM265.145 351V333.545H275.611V335.42H267.259V341.318H274.827V343.193H267.259V351H265.145ZM293.958 342.273C293.958 344.114 293.626 345.705 292.961 347.045C292.296 348.386 291.384 349.42 290.225 350.148C289.066 350.875 287.742 351.239 286.254 351.239C284.765 351.239 283.441 350.875 282.282 350.148C281.123 349.42 280.211 348.386 279.546 347.045C278.881 345.705 278.549 344.114 278.549 342.273C278.549 340.432 278.881 338.841 279.546 337.5C280.211 336.159 281.123 335.125 282.282 334.398C283.441 333.67 284.765 333.307 286.254 333.307C287.742 333.307 289.066 333.67 290.225 334.398C291.384 335.125 292.296 336.159 292.961 337.5C293.626 338.841 293.958 340.432 293.958 342.273ZM291.913 342.273C291.913 340.761 291.66 339.486 291.154 338.446C290.654 337.406 289.975 336.619 289.117 336.085C288.265 335.551 287.31 335.284 286.254 335.284C285.197 335.284 284.239 335.551 283.381 336.085C282.529 336.619 281.85 337.406 281.344 338.446C280.844 339.486 280.594 340.761 280.594 342.273C280.594 343.784 280.844 345.06 281.344 346.099C281.85 347.139 282.529 347.926 283.381 348.46C284.239 348.994 285.197 349.261 286.254 349.261C287.31 349.261 288.265 348.994 289.117 348.46C289.975 347.926 290.654 347.139 291.154 346.099C291.66 345.06 291.913 343.784 291.913 342.273Z" fill="white"/>
<rect width="400" height="82" fill="#0803FF"/>
<path d="M20.6879 40V22.5455H31.1538V24.4205H22.8015V30.3182H30.3697V32.1932H22.8015V40H20.6879ZM34.7738 40V22.5455H36.8874V38.125H45.0011V40H34.7738ZM48.2738 40V22.5455H58.8079V24.4205H50.3874V30.3182H58.2624V32.1932H50.3874V38.125H58.9442V40H48.2738ZM63.6403 22.5455L68.1403 29.8068H68.2766L72.7766 22.5455H75.2653L69.7766 31.2727L75.2653 40H72.7766L68.2766 32.875H68.1403L63.6403 40H61.1516L66.7766 31.2727L61.1516 22.5455H63.6403ZM80.1296 22.5455V40H78.016V22.5455H80.1296ZM84.3675 40V22.5455H90.4698C91.6857 22.5455 92.6886 22.7557 93.4783 23.1761C94.2681 23.5909 94.8562 24.1506 95.2425 24.8551C95.6289 25.554 95.8221 26.3295 95.8221 27.1818C95.8221 27.9318 95.6886 28.5511 95.4215 29.0398C95.1602 29.5284 94.8136 29.9148 94.3817 30.1989C93.9556 30.483 93.4925 30.6932 92.9925 30.8295V31C93.5266 31.0341 94.0636 31.2216 94.6033 31.5625C95.1431 31.9034 95.5948 32.392 95.9585 33.0284C96.3221 33.6648 96.5039 34.4432 96.5039 35.3636C96.5039 36.2386 96.305 37.0256 95.9073 37.7244C95.5096 38.4233 94.8817 38.9773 94.0238 39.3864C93.1658 39.7955 92.0494 40 90.6744 40H84.3675ZM86.4812 38.125H90.6744C92.055 38.125 93.0352 37.858 93.6147 37.3239C94.1999 36.7841 94.4925 36.1307 94.4925 35.3636C94.4925 34.7727 94.342 34.2273 94.0408 33.7273C93.7397 33.2216 93.3107 32.8182 92.7539 32.517C92.1971 32.2102 91.538 32.0568 90.7766 32.0568H86.4812V38.125ZM86.4812 30.2159H90.4016C91.038 30.2159 91.6119 30.0909 92.1232 29.8409C92.6403 29.5909 93.0494 29.2386 93.3505 28.7841C93.6573 28.3295 93.8107 27.7955 93.8107 27.1818C93.8107 26.4148 93.5437 25.7642 93.0096 25.2301C92.4755 24.6903 91.6289 24.4205 90.4698 24.4205H86.4812V30.2159ZM99.9769 40V22.5455H102.091V38.125H110.204V40H99.9769ZM113.477 40V22.5455H124.011V24.4205H115.591V30.3182H123.466V32.1932H115.591V38.125H124.147V40H113.477ZM144.116 26.9091C144.014 26.0455 143.599 25.375 142.872 24.8977C142.145 24.4205 141.252 24.1818 140.196 24.1818C139.423 24.1818 138.747 24.3068 138.167 24.5568C137.593 24.8068 137.145 25.1506 136.821 25.5881C136.502 26.0256 136.343 26.5227 136.343 27.0795C136.343 27.5455 136.454 27.946 136.676 28.2812C136.903 28.6108 137.193 28.8864 137.545 29.108C137.897 29.3239 138.267 29.5028 138.653 29.6449C139.039 29.7812 139.395 29.892 139.718 29.9773L141.491 30.4545C141.946 30.5739 142.451 30.7386 143.008 30.9489C143.571 31.1591 144.108 31.446 144.619 31.8097C145.136 32.1676 145.562 32.6278 145.897 33.1903C146.233 33.7528 146.4 34.4432 146.4 35.2614C146.4 36.2045 146.153 37.0568 145.659 37.8182C145.17 38.5795 144.454 39.1847 143.511 39.6335C142.574 40.0824 141.434 40.3068 140.093 40.3068C138.843 40.3068 137.761 40.1051 136.846 39.7017C135.937 39.2983 135.221 38.7358 134.699 38.0142C134.181 37.2926 133.889 36.4545 133.821 35.5H136.002C136.059 36.1591 136.281 36.7045 136.667 37.1364C137.059 37.5625 137.554 37.8807 138.15 38.0909C138.752 38.2955 139.4 38.3977 140.093 38.3977C140.9 38.3977 141.625 38.267 142.267 38.0057C142.909 37.7386 143.417 37.3693 143.792 36.8977C144.167 36.4205 144.355 35.8636 144.355 35.2273C144.355 34.6477 144.193 34.1761 143.869 33.8125C143.545 33.4489 143.119 33.1534 142.591 32.9261C142.062 32.6989 141.491 32.5 140.877 32.3295L138.73 31.7159C137.366 31.3239 136.287 30.7642 135.491 30.0369C134.696 29.3097 134.298 28.358 134.298 27.1818C134.298 26.2045 134.562 25.3523 135.091 24.625C135.625 23.892 136.341 23.3239 137.238 22.9205C138.142 22.5114 139.15 22.3068 140.264 22.3068C141.389 22.3068 142.389 22.5085 143.264 22.9119C144.139 23.3097 144.832 23.8551 145.343 24.5483C145.86 25.2415 146.133 26.0284 146.162 26.9091H144.116ZM148.375 22.5455H150.796L155.637 30.6932H155.841L160.682 22.5455H163.103L156.796 32.8068V40H154.682V32.8068L148.375 22.5455ZM175.382 26.9091C175.279 26.0455 174.865 25.375 174.137 24.8977C173.41 24.4205 172.518 24.1818 171.461 24.1818C170.689 24.1818 170.012 24.3068 169.433 24.5568C168.859 24.8068 168.41 25.1506 168.086 25.5881C167.768 26.0256 167.609 26.5227 167.609 27.0795C167.609 27.5455 167.72 27.946 167.941 28.2812C168.169 28.6108 168.458 28.8864 168.811 29.108C169.163 29.3239 169.532 29.5028 169.919 29.6449C170.305 29.7812 170.66 29.892 170.984 29.9773L172.757 30.4545C173.211 30.5739 173.717 30.7386 174.274 30.9489C174.836 31.1591 175.373 31.446 175.885 31.8097C176.402 32.1676 176.828 32.6278 177.163 33.1903C177.498 33.7528 177.666 34.4432 177.666 35.2614C177.666 36.2045 177.419 37.0568 176.924 37.8182C176.436 38.5795 175.72 39.1847 174.777 39.6335C173.839 40.0824 172.7 40.3068 171.359 40.3068C170.109 40.3068 169.027 40.1051 168.112 39.7017C167.203 39.2983 166.487 38.7358 165.964 38.0142C165.447 37.2926 165.154 36.4545 165.086 35.5H167.268C167.325 36.1591 167.547 36.7045 167.933 37.1364C168.325 37.5625 168.819 37.8807 169.416 38.0909C170.018 38.2955 170.666 38.3977 171.359 38.3977C172.166 38.3977 172.89 38.267 173.532 38.0057C174.174 37.7386 174.683 37.3693 175.058 36.8977C175.433 36.4205 175.62 35.8636 175.62 35.2273C175.62 34.6477 175.458 34.1761 175.135 33.8125C174.811 33.4489 174.385 33.1534 173.856 32.9261C173.328 32.6989 172.757 32.5 172.143 32.3295L169.995 31.7159C168.632 31.3239 167.552 30.7642 166.757 30.0369C165.961 29.3097 165.564 28.358 165.564 27.1818C165.564 26.2045 165.828 25.3523 166.356 24.625C166.89 23.892 167.606 23.3239 168.504 22.9205C169.407 22.5114 170.416 22.3068 171.529 22.3068C172.654 22.3068 173.654 22.5085 174.529 22.9119C175.404 23.3097 176.098 23.8551 176.609 24.5483C177.126 25.2415 177.399 26.0284 177.427 26.9091H175.382ZM180.186 24.4205V22.5455H193.277V24.4205H187.789V40H185.675V24.4205H180.186ZM196.539 40V22.5455H207.074V24.4205H198.653V30.3182H206.528V32.1932H198.653V38.125H207.21V40H196.539ZM210.883 22.5455H213.406L219.338 37.0341H219.542L225.474 22.5455H227.997V40H226.02V26.7386H225.849L220.395 40H218.485L213.031 26.7386H212.86V40H210.883V22.5455ZM241.78 26.9091C241.678 26.0455 241.263 25.375 240.536 24.8977C239.809 24.4205 238.917 24.1818 237.86 24.1818C237.087 24.1818 236.411 24.3068 235.831 24.5568C235.257 24.8068 234.809 25.1506 234.485 25.5881C234.167 26.0256 234.007 26.5227 234.007 27.0795C234.007 27.5455 234.118 27.946 234.34 28.2812C234.567 28.6108 234.857 28.8864 235.209 29.108C235.561 29.3239 235.931 29.5028 236.317 29.6449C236.703 29.7812 237.059 29.892 237.382 29.9773L239.155 30.4545C239.61 30.5739 240.115 30.7386 240.672 30.9489C241.235 31.1591 241.772 31.446 242.283 31.8097C242.8 32.1676 243.226 32.6278 243.561 33.1903C243.897 33.7528 244.064 34.4432 244.064 35.2614C244.064 36.2045 243.817 37.0568 243.323 37.8182C242.834 38.5795 242.118 39.1847 241.175 39.6335C240.238 40.0824 239.098 40.3068 237.757 40.3068C236.507 40.3068 235.425 40.1051 234.51 39.7017C233.601 39.2983 232.885 38.7358 232.363 38.0142C231.846 37.2926 231.553 36.4545 231.485 35.5H233.667C233.723 36.1591 233.945 36.7045 234.331 37.1364C234.723 37.5625 235.218 37.8807 235.814 38.0909C236.417 38.2955 237.064 38.3977 237.757 38.3977C238.564 38.3977 239.289 38.267 239.931 38.0057C240.573 37.7386 241.081 37.3693 241.456 36.8977C241.831 36.4205 242.019 35.8636 242.019 35.2273C242.019 34.6477 241.857 34.1761 241.533 33.8125C241.209 33.4489 240.783 33.1534 240.255 32.9261C239.726 32.6989 239.155 32.5 238.542 32.3295L236.394 31.7159C235.03 31.3239 233.951 30.7642 233.155 30.0369C232.36 29.3097 231.962 28.358 231.962 27.1818C231.962 26.2045 232.226 25.3523 232.755 24.625C233.289 23.892 234.005 23.3239 234.902 22.9205C235.806 22.5114 236.814 22.3068 237.928 22.3068C239.053 22.3068 240.053 22.5085 240.928 22.9119C241.803 23.3097 242.496 23.8551 243.007 24.5483C243.525 25.2415 243.797 26.0284 243.826 26.9091H241.78Z" fill="white"/>
<rect width="400" height="48" transform="translate(0 82)" fill="#0803FF"/>
<path d="M23.1879 104.545H25.7106L31.6424 119.034H31.8469L37.7788 104.545H40.3015V122H38.3242V108.739H38.1538L32.6992 122H30.7901L25.3356 108.739H25.1651V122H23.1879V104.545ZM44.5394 122V104.545H46.6531V120.125H54.7667V122H44.5394Z" fill="white"/>
<path d="M232.808 103.42V101.545H245.898V103.42H240.41V119H238.296V103.42H232.808ZM249.161 119V101.545H255.058C256.428 101.545 257.547 101.793 258.416 102.287C259.291 102.776 259.939 103.438 260.359 104.273C260.78 105.108 260.99 106.04 260.99 107.068C260.99 108.097 260.78 109.031 260.359 109.872C259.945 110.713 259.303 111.384 258.433 111.884C257.564 112.378 256.45 112.625 255.092 112.625H250.865V110.75H255.024C255.962 110.75 256.714 110.588 257.283 110.264C257.851 109.94 258.263 109.503 258.518 108.952C258.78 108.395 258.911 107.767 258.911 107.068C258.911 106.369 258.78 105.744 258.518 105.193C258.263 104.642 257.848 104.21 257.274 103.898C256.7 103.58 255.939 103.42 254.99 103.42H251.274V119H249.161ZM278.236 101.545V119H276.19L266.679 105.295H266.509V119H264.395V101.545H266.44L275.986 115.284H276.156V101.545H278.236Z" fill="white"/>
<rect width="400" height="90" transform="translate(0 130)" fill="#0803FF"/>
<path d="M20.1332 170V152.545H22.2468V160.318H31.5536V152.545H33.6673V170H31.5536V162.193H22.2468V170H20.1332ZM37.8988 170V152.545H40.0124V160.318H49.3192V152.545H51.4329V170H49.3192V162.193H40.0124V170H37.8988ZM62.4144 170V152.545H68.5167C69.7326 152.545 70.7354 152.756 71.5252 153.176C72.315 153.591 72.9031 154.151 73.2894 154.855C73.6758 155.554 73.869 156.33 73.869 157.182C73.869 157.932 73.7354 158.551 73.4684 159.04C73.207 159.528 72.8604 159.915 72.4286 160.199C72.0025 160.483 71.5394 160.693 71.0394 160.83V161C71.5735 161.034 72.1104 161.222 72.6502 161.562C73.19 161.903 73.6417 162.392 74.0053 163.028C74.369 163.665 74.5508 164.443 74.5508 165.364C74.5508 166.239 74.3519 167.026 73.9542 167.724C73.5565 168.423 72.9286 168.977 72.0707 169.386C71.2127 169.795 70.0962 170 68.7212 170H62.4144ZM64.5281 168.125H68.7212C70.1019 168.125 71.082 167.858 71.6616 167.324C72.2468 166.784 72.5394 166.131 72.5394 165.364C72.5394 164.773 72.3888 164.227 72.0877 163.727C71.7866 163.222 71.3576 162.818 70.8008 162.517C70.244 162.21 69.5849 162.057 68.8235 162.057H64.5281V168.125ZM64.5281 160.216H68.4485C69.0849 160.216 69.6587 160.091 70.1701 159.841C70.6871 159.591 71.0962 159.239 71.3974 158.784C71.7042 158.33 71.8576 157.795 71.8576 157.182C71.8576 156.415 71.5906 155.764 71.0565 155.23C70.5224 154.69 69.6758 154.42 68.5167 154.42H64.5281V160.216ZM92.0692 158H89.9556C89.8306 157.392 89.6119 156.858 89.2994 156.398C88.9925 155.938 88.6175 155.551 88.1744 155.239C87.7369 154.92 87.2511 154.682 86.717 154.523C86.1829 154.364 85.6261 154.284 85.0465 154.284C83.9897 154.284 83.0323 154.551 82.1744 155.085C81.3221 155.619 80.6431 156.406 80.1374 157.446C79.6374 158.486 79.3874 159.761 79.3874 161.273C79.3874 162.784 79.6374 164.06 80.1374 165.099C80.6431 166.139 81.3221 166.926 82.1744 167.46C83.0323 167.994 83.9897 168.261 85.0465 168.261C85.6261 168.261 86.1829 168.182 86.717 168.023C87.2511 167.864 87.7369 167.628 88.1744 167.315C88.6175 166.997 88.9925 166.608 89.2994 166.148C89.6119 165.682 89.8306 165.148 89.9556 164.545H92.0692C91.9102 165.437 91.6204 166.236 91.1999 166.94C90.7795 167.645 90.2567 168.244 89.6317 168.739C89.0067 169.227 88.305 169.599 87.5266 169.855C86.7539 170.111 85.9272 170.239 85.0465 170.239C83.5579 170.239 82.234 169.875 81.0749 169.148C79.9158 168.42 79.0039 167.386 78.3391 166.045C77.6744 164.705 77.342 163.114 77.342 161.273C77.342 159.432 77.6744 157.841 78.3391 156.5C79.0039 155.159 79.9158 154.125 81.0749 153.398C82.234 152.67 83.5579 152.307 85.0465 152.307C85.9272 152.307 86.7539 152.435 87.5266 152.69C88.305 152.946 89.0067 153.321 89.6317 153.815C90.2567 154.304 90.7795 154.901 91.1999 155.605C91.6204 156.304 91.9102 157.102 92.0692 158ZM95.4847 170V152.545H101.587C102.803 152.545 103.806 152.756 104.596 153.176C105.385 153.591 105.973 154.151 106.36 154.855C106.746 155.554 106.939 156.33 106.939 157.182C106.939 157.932 106.806 158.551 106.539 159.04C106.277 159.528 105.931 159.915 105.499 160.199C105.073 160.483 104.61 160.693 104.11 160.83V161C104.644 161.034 105.181 161.222 105.721 161.562C106.26 161.903 106.712 162.392 107.076 163.028C107.439 163.665 107.621 164.443 107.621 165.364C107.621 166.239 107.422 167.026 107.025 167.724C106.627 168.423 105.999 168.977 105.141 169.386C104.283 169.795 103.167 170 101.792 170H95.4847ZM97.5984 168.125H101.792C103.172 168.125 104.152 167.858 104.732 167.324C105.317 166.784 105.61 166.131 105.61 165.364C105.61 164.773 105.459 164.227 105.158 163.727C104.857 163.222 104.428 162.818 103.871 162.517C103.314 162.21 102.655 162.057 101.894 162.057H97.5984V168.125ZM97.5984 160.216H101.519C102.155 160.216 102.729 160.091 103.24 159.841C103.757 159.591 104.167 159.239 104.468 158.784C104.775 158.33 104.928 157.795 104.928 157.182C104.928 156.415 104.661 155.764 104.127 155.23C103.593 154.69 102.746 154.42 101.587 154.42H97.5984V160.216Z" fill="white"/>
<path d="M235.043 168V150.545H241.146C242.362 150.545 243.364 150.756 244.154 151.176C244.944 151.591 245.532 152.151 245.918 152.855C246.305 153.554 246.498 154.33 246.498 155.182C246.498 155.932 246.364 156.551 246.097 157.04C245.836 157.528 245.489 157.915 245.058 158.199C244.631 158.483 244.168 158.693 243.668 158.83V159C244.202 159.034 244.739 159.222 245.279 159.562C245.819 159.903 246.271 160.392 246.634 161.028C246.998 161.665 247.18 162.443 247.18 163.364C247.18 164.239 246.981 165.026 246.583 165.724C246.185 166.423 245.558 166.977 244.7 167.386C243.842 167.795 242.725 168 241.35 168H235.043ZM237.157 166.125H241.35C242.731 166.125 243.711 165.858 244.29 165.324C244.876 164.784 245.168 164.131 245.168 163.364C245.168 162.773 245.018 162.227 244.717 161.727C244.415 161.222 243.987 160.818 243.43 160.517C242.873 160.21 242.214 160.057 241.452 160.057H237.157V166.125ZM237.157 158.216H241.077C241.714 158.216 242.288 158.091 242.799 157.841C243.316 157.591 243.725 157.239 244.026 156.784C244.333 156.33 244.487 155.795 244.487 155.182C244.487 154.415 244.219 153.764 243.685 153.23C243.151 152.69 242.305 152.42 241.146 152.42H237.157V158.216ZM264.698 156H262.585C262.46 155.392 262.241 154.858 261.928 154.398C261.621 153.938 261.246 153.551 260.803 153.239C260.366 152.92 259.88 152.682 259.346 152.523C258.812 152.364 258.255 152.284 257.675 152.284C256.619 152.284 255.661 152.551 254.803 153.085C253.951 153.619 253.272 154.406 252.766 155.446C252.266 156.486 252.016 157.761 252.016 159.273C252.016 160.784 252.266 162.06 252.766 163.099C253.272 164.139 253.951 164.926 254.803 165.46C255.661 165.994 256.619 166.261 257.675 166.261C258.255 166.261 258.812 166.182 259.346 166.023C259.88 165.864 260.366 165.628 260.803 165.315C261.246 164.997 261.621 164.608 261.928 164.148C262.241 163.682 262.46 163.148 262.585 162.545H264.698C264.539 163.437 264.249 164.236 263.829 164.94C263.408 165.645 262.886 166.244 262.261 166.739C261.636 167.227 260.934 167.599 260.156 167.855C259.383 168.111 258.556 168.239 257.675 168.239C256.187 168.239 254.863 167.875 253.704 167.148C252.545 166.42 251.633 165.386 250.968 164.045C250.303 162.705 249.971 161.114 249.971 159.273C249.971 157.432 250.303 155.841 250.968 154.5C251.633 153.159 252.545 152.125 253.704 151.398C254.863 150.67 256.187 150.307 257.675 150.307C258.556 150.307 259.383 150.435 260.156 150.69C260.934 150.946 261.636 151.321 262.261 151.815C262.886 152.304 263.408 152.901 263.829 153.605C264.249 154.304 264.539 155.102 264.698 156ZM281.955 150.545V168H279.909L270.398 154.295H270.227V168H268.114V150.545H270.159L279.705 164.284H279.875V150.545H281.955Z" fill="white"/>
</svg>
