<svg width="400" height="400" viewBox="0 0 " fill="none" xmlns="http://www.w3.org/2000/svg">
<g clip-path="url(#clip0_98_11)">
<rect width="400" height="160" fill="white"/>
<g clip-path="url(#clip1_98_11)">
<rect width="400" height="80" fill="white"/>
<rect x="50" width="300" height="20" fill="#3BFF1C"/>
<rect x="50" y="60" width="300" height="20" fill="#3BFF1C"/>
<rect x="400" y="20" width="40" height="50" transform="rotate(90 400 20)" fill="#3BFF1C"/>
<rect x="50" y="20" width="40" height="50" transform="rotate(90 50 20)" fill="#3BFF1C"/>
</g>
<g clip-path="url(#clip2_98_11)">
<rect width="400" height="82" transform="translate(0 80)" fill="white"/>
<rect x="400" y="100" width="42" height="20" transform="rotate(90 400 100)" fill="#3BFF1C"/>
<rect x="220" y="100" width="40" height="20" transform="rotate(90 220 100)" fill="#3BFF1C"/>
<path d="M380 160.5L220 160.5L220 140.5L380 140.5L380 160.5Z" fill="#3BFF1C"/>
<rect x="380" y="100" width="160" height="20" transform="rotate(-180 380 100)" fill="#3BFF1C"/>
<rect x="200" y="100" width="40" height="20" transform="rotate(90 200 100)" fill="#3BFF1C"/>
<rect x="20" y="100" width="40" height="20" transform="rotate(90 20 100)" fill="#3BFF1C"/>
<rect x="180" y="160" width="160" height="20" transform="rotate(-180 180 160)" fill="#3BFF1C"/>
<rect x="180" y="100" width="160" height="20" transform="rotate(-180 180 100)" fill="#3BFF1C"/>
</g>
</g>
<g clip-path="url(#clip3_98_11)">
<rect width="400" height="240" transform="translate(0 160)" fill="white"/>
<rect x="50" y="160" width="300" height="50" fill="#3BFF1C"/>
<rect x="50" y="350" width="300" height="50" fill="#3BFF1C"/>
<rect x="400" y="210" width="140" height="50" transform="rotate(90 400 210)" fill="#3BFF1C"/>
<rect x="50" y="210" width="140" height="50" transform="rotate(90 50 210)" fill="#3BFF1C"/>
</g>
<defs>
<clipPath id="clip0_98_11">
<rect width="400" height="160" fill="white"/>
</clipPath>
<clipPath id="clip1_98_11">
<rect width="400" height="80" fill="white"/>
</clipPath>
<clipPath id="clip2_98_11">
<rect width="400" height="82" fill="white" transform="translate(0 80)"/>
</clipPath>
<clipPath id="clip3_98_11">
<rect width="400" height="240" fill="white" transform="translate(0 160)"/>
</clipPath>
</defs>
</svg>
